# Blender 4.2.3 LTS
# www.blender.org
mtllib deco_stool.mtl
o stool
v 0.375000 0.750000 0.375000
v 0.375000 0.750000 0.250000
v 0.375000 0.000000 0.375000
v 0.375000 0.000000 0.250000
v 0.250000 0.750000 0.375000
v 0.250000 0.750000 0.250000
v 0.250000 0.000000 0.375000
v 0.250000 0.000000 0.250000
v -0.250000 0.750000 0.375000
v -0.250000 0.750000 0.250000
v -0.250000 0.000000 0.375000
v -0.250000 0.000000 0.250000
v -0.375000 0.750000 0.375000
v -0.375000 0.750000 0.250000
v -0.375000 0.000000 0.375000
v -0.375000 0.000000 0.250000
v 0.375000 0.750000 -0.250000
v 0.375000 0.750000 -0.375000
v 0.375000 -0.000000 -0.250000
v 0.375000 -0.000000 -0.375000
v 0.250000 0.750000 -0.250000
v 0.250000 0.750000 -0.375000
v 0.250000 -0.000000 -0.250000
v 0.250000 -0.000000 -0.375000
v -0.250000 0.750000 -0.250000
v -0.250000 0.750000 -0.375000
v -0.250000 -0.000000 -0.250000
v -0.250000 -0.000000 -0.375000
v -0.375000 0.750000 -0.250000
v -0.375000 0.750000 -0.375000
v -0.375000 -0.000000 -0.250000
v -0.375000 -0.000000 -0.375000
v 0.437500 1.000000 0.437500
v 0.437500 1.000000 -0.437500
v 0.437500 0.750000 0.437500
v 0.437500 0.750000 -0.437500
v -0.437500 1.000000 0.437500
v -0.437500 1.000000 -0.437500
v -0.437500 0.750000 0.437500
v -0.437500 0.750000 -0.437500
v 0.437500 0.875000 0.437500
v 0.437500 0.875000 -0.437500
v -0.437500 0.875000 -0.437500
v -0.437500 0.875000 0.437500
vn 1.0000 -0.0000 -0.0000
vn -1.0000 -0.0000 -0.0000
vn -0.0000 -1.0000 -0.0000
vn -0.0000 -0.0000 1.0000
vn -0.0000 -0.0000 -1.0000
vn -0.0000 1.0000 -0.0000
vt 0.875000 0.750000
vt 1.000000 0.000000
vt 1.000000 0.750000
vt 0.875000 0.000000
vt 1.000000 0.875000
vt 0.875000 0.125000
vt 0.000000 0.000000
vt 0.875000 0.875000
vt 0.000000 0.875000
vt 0.000000 0.750000
vt 0.000000 0.125000
s 0
usemtl m_9c6afbf5-3d71-9281-7179-58c70aa30beb
f 1/1/1 4/2/1 2/3/1
f 5/3/2 8/4/2 7/2/2
f 3/5/3 8/1/3 4/3/3
f 1/3/4 7/4/4 3/2/4
f 2/1/5 8/2/5 6/3/5
f 9/1/1 12/2/1 10/3/1
f 13/3/2 16/4/2 15/2/2
f 11/5/3 16/1/3 12/3/3
f 9/3/4 15/4/4 11/2/4
f 10/1/5 16/2/5 14/3/5
f 17/1/1 20/2/1 18/3/1
f 21/3/2 24/4/2 23/2/2
f 19/5/3 24/1/3 20/3/3
f 17/3/4 23/4/4 19/2/4
f 18/1/5 24/2/5 22/3/5
f 25/1/1 28/2/1 26/3/1
f 29/3/2 32/4/2 31/2/2
f 27/5/3 32/1/3 28/3/3
f 25/3/4 31/4/4 27/2/4
f 26/1/5 32/2/5 30/3/5
f 42/6/1 35/7/1 36/4/1
f 44/6/2 40/7/2 39/4/2
f 41/6/4 39/7/4 35/4/4
f 43/6/5 36/7/5 40/4/5
f 35/8/3 40/7/3 36/4/3
f 33/4/6 38/9/6 37/7/6
f 41/10/1 34/8/1 33/9/1
f 42/10/5 38/8/5 34/9/5
f 43/10/2 37/8/2 38/9/2
f 44/10/4 33/8/4 37/9/4
f 1/1/1 3/4/1 4/2/1
f 5/3/2 6/1/2 8/4/2
f 3/5/3 7/8/3 8/1/3
f 1/3/4 5/1/4 7/4/4
f 2/1/5 4/4/5 8/2/5
f 9/1/1 11/4/1 12/2/1
f 13/3/2 14/1/2 16/4/2
f 11/5/3 15/8/3 16/1/3
f 9/3/4 13/1/4 15/4/4
f 10/1/5 12/4/5 16/2/5
f 17/1/1 19/4/1 20/2/1
f 21/3/2 22/1/2 24/4/2
f 19/5/3 23/8/3 24/1/3
f 17/3/4 21/1/4 23/4/4
f 18/1/5 20/4/5 24/2/5
f 25/1/1 27/4/1 28/2/1
f 29/3/2 30/1/2 32/4/2
f 27/5/3 31/8/3 32/1/3
f 25/3/4 29/1/4 31/4/4
f 26/1/5 28/4/5 32/2/5
f 42/6/1 41/11/1 35/7/1
f 44/6/2 43/11/2 40/7/2
f 41/6/4 44/11/4 39/7/4
f 43/6/5 42/11/5 36/7/5
f 35/8/3 39/9/3 40/7/3
f 33/4/6 34/8/6 38/9/6
f 41/10/1 42/1/1 34/8/1
f 42/10/5 43/1/5 38/8/5
f 43/10/2 44/1/2 37/8/2
f 44/10/4 41/1/4 33/8/4
